<svg width="100" height="100" viewBox="0 0 120 120" xmlns="http://w3.org">
  <defs>
    <linearGradient id="restGradient" x1="0%" y1="0%" x2="100%" y2="100%">
      <stop offset="0%" stop-color="#2F80ED" />
      <stop offset="100%" stop-color="#43A047" />
    </linearGradient>
  </defs>
  <g transform="translate(15, 15) scale(0.75)">
    
    <!-- Prato e Talheres com Gradiente -->
    <circle cx="50" cy="50" r="30" fill="url(#restGradient)"/>
    <path d="M10 10C10 10 10 40 20 40V85H25V40C35 40 35 10 35 10H30V30H27V10H23V30H20V10H15V30H12V10H10Z" fill="url(#restGradient)"/>
    <path d="M70 10V85H85V10C85 10 85 0 77 0C70 0 70 10 70 10Z" fill="url(#restGradient)" fill-opacity="0.8"/>
    
    <!-- Detalhes em Branco/Superfície -->
    <circle cx="50" cy="50" r="22" stroke="#FFFFFF" stroke-width="4" fill="none"/>
    <circle cx="50" cy="50" r="10" fill="#F8FAFC"/>
  </g>
</svg>
